<svg width="924" height="150" viewBox="0 0 924 150" fill="none" xmlns="http://www.w3.org/2000/svg">
<path d="M923.513 124.204C923.513 124.477 923.513 124.75 923.513 125.023H659.136C659.136 124.75 659.136 124.477 659 124.204H923.513ZM681.111 144.677C681.52 145.905 682.203 147.543 682.203 148.226C682.203 149.045 681.52 149.181 680.838 149.318V149.591H686.025V149.318C684.66 149.045 684.387 148.499 683.841 147.27L680.019 137.034C679.61 137.443 679.2 137.716 678.791 137.989C678.927 138.262 678.791 138.672 678.654 139.217L677.562 142.084L675.652 147.27C675.106 148.635 674.969 149.045 673.468 149.454V149.727H678.108V149.454C677.289 149.318 676.061 149.318 676.061 148.226C676.061 147.407 676.88 145.632 677.153 144.677H681.111ZM680.838 143.858H677.426L679.064 139.354L680.838 143.858ZM700.765 143.312C702.13 142.903 703.904 142.357 703.904 140.582C703.904 137.853 700.492 137.58 698.445 137.716L694.896 137.853V138.126C696.944 138.399 696.944 138.944 696.944 140.719V146.724C696.944 148.499 696.807 149.045 694.76 149.318V149.591H699.537C700.356 149.591 704.587 149.727 704.587 146.451C704.723 144.404 702.403 143.722 700.765 143.312ZM698.581 143.722H699.264C701.857 143.585 702.813 145.769 702.813 146.724C702.813 148.226 701.721 149.318 700.219 149.318C698.445 149.318 698.581 148.089 698.581 146.724V143.722ZM698.581 138.126C700.356 138.126 702.267 138.808 702.267 140.855C702.267 142.903 700.219 143.312 698.581 143.312V138.126ZM721.102 143.312C722.467 142.903 724.241 142.357 724.241 140.582C724.241 137.853 720.829 137.58 718.782 137.716L715.233 137.853V138.126C717.28 138.399 717.28 138.944 717.28 140.719V146.724C717.28 148.499 717.144 149.045 715.096 149.318V149.591H719.874C720.692 149.591 724.924 149.727 724.924 146.451C724.924 144.404 722.603 143.722 721.102 143.312ZM718.782 143.722H719.464C722.057 143.585 723.013 145.769 723.013 146.724C723.013 148.226 721.921 149.318 720.419 149.318C718.645 149.318 718.782 148.089 718.782 146.724V143.722ZM718.782 138.126C720.556 138.126 722.467 138.808 722.467 140.855C722.467 142.903 720.419 143.312 718.782 143.312V138.126ZM735.297 149.591H744.987C745.397 148.499 745.533 147.407 745.533 146.178H745.26C744.851 148.362 743.759 149.181 741.575 149.181C738.709 149.181 738.982 147.816 738.982 146.724V143.858H740.756C742.121 143.858 743.076 143.858 743.213 145.359H743.622V141.538H743.349C743.213 143.039 742.121 143.176 740.893 143.176H739.118V138.262H740.756C742.53 138.262 744.168 138.262 744.305 140.582H744.578L744.851 137.853H735.433V138.126C737.48 138.399 737.48 138.944 737.617 140.719V146.861C737.617 148.635 737.48 149.181 735.433 149.454V149.591H735.297ZM761.502 137.716V137.989C763.004 138.126 763.14 138.808 762.048 140.855L760.547 143.722L758.773 139.9C758.227 138.672 758.09 138.126 759.455 137.853V137.58H754.678V137.853C756.452 138.126 756.862 139.354 757.544 140.719L759.318 144.677V146.042C759.318 148.089 759.182 148.772 756.998 149.045V149.318H763.14V149.045C760.956 148.635 760.82 147.953 760.82 146.042V144.131L762.867 140.036C763.55 138.808 764.369 137.989 765.87 137.853V137.58H761.502V137.716ZM795.488 138.262C794.669 137.853 793.85 137.58 792.894 137.58C790.984 137.58 789.073 138.808 789.073 140.855C789.073 144.404 794.396 143.995 794.396 147.134C794.396 148.499 793.44 149.318 792.076 149.318C790.165 149.318 788.936 147.68 788.527 146.042H788.254L788.8 149.045C789.755 149.591 790.847 150 791.803 150C793.85 150 796.034 148.772 796.034 146.588C796.034 143.039 790.574 143.176 790.574 140.173C790.574 139.081 791.53 138.262 792.621 138.262C794.396 138.262 794.805 139.627 795.078 140.992H795.351L795.488 138.262ZM817.326 138.535C816.234 137.853 814.869 137.58 813.504 137.58C808.864 137.58 806.543 140.719 806.543 143.858C806.543 147.816 809.819 149.864 813.368 149.864C814.596 149.864 815.824 149.591 816.916 149.045C817.326 148.089 817.735 146.997 817.872 145.905L817.599 145.769C816.78 147.68 815.961 149.318 813.641 149.318C811.047 149.318 808.454 146.861 808.454 143.449C808.454 140.446 810.228 137.853 813.504 137.853C815.551 137.853 816.78 139.217 817.053 141.265H817.326V138.535ZM831.384 143.858H838.345V146.724C838.345 148.635 838.345 149.045 836.025 149.318V149.591H842.03V149.318C839.983 149.045 839.983 148.499 839.846 146.724V140.582C839.846 138.808 839.983 138.262 842.03 137.989V137.716H836.025V137.989C838.345 138.262 838.345 138.672 838.345 140.582V143.176H831.384V140.582C831.384 138.672 831.384 138.262 833.704 137.989V137.716H827.699V137.989C829.746 138.262 829.746 138.808 829.883 140.582V146.724C829.883 148.499 829.746 149.045 827.699 149.318V149.591H833.704V149.318C831.384 149.045 831.384 148.635 831.384 146.724V143.858ZM864.96 143.722C864.96 140.582 863.049 137.58 858.545 137.58C854.86 137.58 852.13 140.036 852.13 143.722C852.13 147.543 854.86 149.864 858.545 149.864C862.23 149.864 864.96 147.407 864.96 143.722ZM854.177 143.312C854.177 140.992 855.406 137.989 858.409 137.989C861.138 137.989 862.913 140.855 862.913 143.995C862.913 146.451 861.684 149.454 858.818 149.454C855.679 149.454 854.177 145.905 854.177 143.312ZM888.299 143.722C888.299 140.582 886.389 137.58 881.884 137.58C878.199 137.58 875.47 140.036 875.47 143.722C875.47 147.543 878.199 149.864 881.884 149.864C885.57 149.864 888.299 147.407 888.299 143.722ZM877.517 143.312C877.517 140.992 878.745 137.989 881.748 137.989C884.478 137.989 886.252 140.855 886.252 143.995C886.252 146.451 885.024 149.454 882.157 149.454C879.018 149.454 877.517 145.905 877.517 143.312ZM898.536 149.591H908.227L909.182 146.315L908.909 146.178C907.544 148.362 907.135 149.181 904.541 149.045L902.358 148.908C902.085 148.089 902.085 147.134 902.085 146.315V140.582C902.085 138.808 902.085 138.262 904.268 137.989V137.716H898.399V137.989C900.447 138.262 900.447 138.808 900.583 140.582V146.724C900.583 148.499 900.583 149.045 898.399 149.318V149.591H898.536ZM674.696 88.717C673.195 87.8981 671.284 87.3521 669.51 87.3521C665.688 87.3521 661.593 89.9454 661.593 94.1765C661.593 101.274 672.512 100.728 672.512 107.006C672.512 109.736 670.465 111.374 667.872 111.374C663.914 111.374 661.593 107.962 660.638 104.55H659.955L660.911 110.555C662.685 111.783 665.005 112.329 667.189 112.329C671.284 112.329 675.788 110.009 675.788 105.369C675.788 98.1347 664.596 98.4076 664.596 92.2657C664.596 89.9454 666.507 88.3075 668.691 88.3075C672.239 88.3075 673.195 91.0373 673.741 93.9035H674.287L674.696 88.717ZM683.704 98.6806C684.796 94.7225 686.843 94.313 690.665 94.313V105.778C690.665 110.828 690.256 110.555 686.571 111.101V111.92H698.445V111.101C694.623 110.555 694.35 110.692 694.35 105.778V94.313C698.172 94.313 700.219 94.7225 701.311 98.6806L702.13 98.5441L701.311 92.2657H700.765C700.219 93.2211 699.264 93.0846 698.308 93.0846H686.707C686.161 93.0846 685.752 93.0846 685.342 93.0846C684.933 92.9481 684.523 92.8116 684.25 92.2657H683.568L682.885 98.4076L683.704 98.6806ZM740.483 101.82C741.439 104.277 742.803 107.689 742.803 109.19C742.803 110.828 741.302 111.237 740.074 111.51V111.92H750.447V111.374C747.581 110.828 747.035 109.873 746.079 107.279L738.299 86.3967C737.617 87.3521 736.662 87.8981 735.706 88.3075C736.116 88.99 735.57 89.8089 735.297 90.7643L733.113 96.4968L729.155 107.006C728.063 109.736 727.79 110.555 724.514 111.374V111.92H734.205V111.374C732.567 111.101 730.11 111.101 730.11 108.917C730.11 107.279 731.611 103.458 732.294 101.683H740.483V101.82ZM740.074 100.182H732.976L736.252 90.9008L740.074 100.182ZM760.547 107.143C760.547 110.828 759.182 110.692 757.135 111.101V111.92H766.143V111.101C762.867 110.419 762.321 110.146 762.185 106.733C762.048 103.731 761.912 100.864 762.048 97.7252C766.552 102.639 773.104 109.19 775.833 112.602L777.062 112.056V99.7725C777.062 95.2684 777.198 94.1765 779.655 93.9035V93.0846H771.329V93.9035C774.605 94.313 775.424 94.7225 775.424 97.9982L775.561 106.733C771.602 102.093 766.825 97.4522 763.277 92.9481H756.998V93.7671C760.547 94.313 760.547 96.3603 760.547 99.2266V107.143ZM800.538 93.9035C799.173 93.0846 797.535 92.6752 795.897 92.6752C792.485 92.6752 789.073 94.7225 789.073 98.4076C789.073 103.867 798.081 103.458 798.081 108.098C798.081 109.873 796.716 111.101 794.942 111.101C791.666 111.101 789.619 108.098 788.8 105.369L787.981 105.505L788.936 110.965C790.711 111.783 792.621 112.329 794.532 112.329C798.081 112.329 801.903 110.692 801.903 106.733C801.903 101.001 792.894 101.274 792.894 96.7698C792.894 95.1319 793.986 93.9035 795.761 93.9035C798.627 93.9035 799.309 96.3603 799.719 98.6806H800.538V93.9035ZM818.827 103.048C821.284 103.048 822.512 103.048 823.058 105.641H823.877C823.741 103.321 823.877 101.001 824.014 98.6806H823.331C822.649 101.137 821.42 101.41 818.964 101.41H816.643V94.313H818.691C821.693 94.313 824.15 94.313 824.287 97.9982H825.106L825.651 93.2211H809.273V94.04C812.549 94.586 812.958 94.4495 812.958 99.3631V105.914C812.958 110.965 812.549 110.692 809.273 111.237V111.92H825.924C826.607 109.873 827.016 107.689 826.88 105.641H826.061C825.242 108.781 823.741 110.828 820.192 110.828C816.507 110.828 816.507 109.6 816.507 106.733V103.048H818.827ZM853.358 105.369L852.54 105.096C850.356 108.917 849.264 110.692 844.487 110.692C841.621 110.692 842.03 110.419 842.03 109.463V99.3631C842.03 95.6779 841.894 94.313 845.715 94.04V93.2211H834.796V94.04C838.072 94.586 838.481 94.4495 838.481 99.3631V105.914C838.481 110.965 838.072 110.692 834.796 111.237V111.92H851.311L853.358 105.369ZM879.428 106.324C879.564 109.873 879.837 110.692 876.015 111.237V111.92H886.662V111.101C883.249 110.555 883.249 109.6 883.113 106.46L882.703 97.5887C882.567 94.9954 882.976 94.4495 885.706 93.9035V93.0846H877.926V93.6306C878.609 94.313 878.063 95.5414 877.653 96.2238L873.149 106.46L869.328 97.5887C868.918 96.6333 867.826 94.586 868.509 93.6306V93.0846H861.275V93.9035C862.913 94.313 864.414 94.313 864.141 96.3603L862.503 108.098C862.094 110.282 861.548 110.419 859.5 110.965V111.92H867.826V111.101C865.642 110.555 864.414 110.555 864.551 108.098L865.233 97.3157L871.511 112.193H872.33L878.745 96.7698L879.428 106.324ZM895.67 101.956C897.853 100.728 900.037 98.8171 900.037 96.2238C900.037 94.4495 899.082 92.8116 897.171 92.8116C895.806 92.8116 894.714 93.7671 894.714 95.1319C894.714 95.5414 894.851 95.9509 895.124 96.3603C895.533 96.0873 895.943 95.9509 896.352 95.9509C897.444 95.9509 898.126 96.6333 898.126 97.7252C898.126 99.3631 896.625 100.455 895.397 101.274L895.67 101.956ZM921.466 93.9035C920.101 93.0846 918.463 92.6752 916.825 92.6752C913.413 92.6752 910.001 94.7225 910.001 98.4076C910.001 103.867 919.009 103.458 919.009 108.098C919.009 109.873 917.644 111.101 915.87 111.101C912.594 111.101 910.547 108.098 909.728 105.369L908.909 105.505L909.864 110.965C911.639 111.783 913.55 112.329 915.46 112.329C919.009 112.329 922.831 110.692 922.831 106.733C922.831 101.001 913.823 101.274 913.823 96.7698C913.823 95.1319 914.914 93.9035 916.689 93.9035C919.555 93.9035 920.237 96.3603 920.783 98.6806H921.602L921.466 93.9035ZM708.545 113.012C709.637 113.012 710.319 112.193 710.319 111.101C710.319 110.009 709.637 109.19 708.545 109.19C707.453 109.19 706.771 110.009 706.771 111.101C706.771 112.193 707.59 113.012 708.545 113.012ZM775.97 7.09736C772.558 10.7825 773.65 14.0582 773.65 14.0582C772.558 15.2866 772.558 17.8799 774.878 18.4258C777.198 19.1083 778.973 15.1501 776.652 12.1474C775.288 10.5096 775.97 7.09736 775.97 7.09736ZM781.975 5.18653C778.563 8.59873 779.655 11.6015 779.655 11.6015C778.563 12.6934 778.563 15.1501 780.884 15.6961C783.204 16.242 784.978 12.6934 782.658 9.82711C781.293 8.32575 781.975 5.18653 781.975 5.18653ZM770.101 5.18653C766.689 8.59873 767.781 11.6015 767.781 11.6015C766.689 12.6934 766.689 15.1501 769.009 15.6961C771.329 16.242 773.104 12.6934 770.783 9.82711C769.419 8.32575 770.101 5.18653 770.101 5.18653ZM775.97 33.9854C772.558 37.5341 773.65 40.9463 773.65 40.9463C772.558 42.1747 772.558 44.768 774.878 45.3139C777.198 45.9964 778.973 42.0382 776.652 39.0355C775.288 37.2611 775.97 33.9854 775.97 33.9854ZM807.362 33.9854C803.95 37.6706 805.042 40.9463 805.042 40.9463C803.95 42.1747 803.95 44.768 806.27 45.3139C808.591 45.9964 810.365 42.0382 808.045 39.0355C806.68 37.2611 807.362 33.9854 807.362 33.9854ZM781.975 31.6651C778.563 35.0773 779.655 38.2166 779.655 38.2166C778.563 39.3085 778.563 41.7652 780.884 42.3112C783.204 42.8571 784.978 39.3085 782.658 36.4422C781.293 34.8044 781.975 31.6651 781.975 31.6651ZM782.385 43.2666C778.973 46.6788 780.065 49.818 780.065 49.818C778.973 50.9099 778.973 53.3667 781.293 53.9126C783.613 54.4586 785.388 50.9099 783.067 48.0437C781.702 46.4058 782.385 43.2666 782.385 43.2666ZM801.22 31.6651C797.808 35.0773 798.9 38.2166 798.9 38.2166C797.808 39.3085 797.808 41.7652 800.128 42.3112C802.449 42.8571 804.223 39.3085 801.903 36.4422C800.538 34.8044 801.22 31.6651 801.22 31.6651ZM801.63 43.2666C798.217 46.6788 799.309 49.818 799.309 49.818C798.217 50.9099 798.217 53.3667 800.538 53.9126C802.858 54.4586 804.632 50.9099 802.312 48.0437C800.947 46.4058 801.63 43.2666 801.63 43.2666ZM807.635 7.09736C804.223 10.7825 805.315 14.0582 805.315 14.0582C804.223 15.2866 804.223 17.8799 806.543 18.4258C808.864 19.1083 810.638 15.1501 808.318 12.1474C806.953 10.5096 807.635 7.09736 807.635 7.09736ZM813.641 5.18653C810.228 8.59873 811.32 11.6015 811.32 11.6015C810.228 12.6934 810.228 15.1501 812.549 15.6961C814.869 16.242 816.643 12.6934 814.323 9.82711C812.822 8.32575 813.641 5.18653 813.641 5.18653ZM801.766 5.18653C798.354 8.59873 799.446 11.6015 799.446 11.6015C798.354 12.6934 798.354 15.1501 800.674 15.6961C802.995 16.242 804.769 12.6934 802.449 9.82711C801.084 8.32575 801.766 5.18653 801.766 5.18653ZM821.284 0V22.5205C821.284 22.5205 821.284 52.5478 791.257 67.5614C761.229 52.5478 761.229 22.5205 761.229 22.5205V0H821.284ZM798.763 5.18653C797.944 4.36761 797.126 3.95814 796.307 3.68517V19.7907H817.326C817.735 18.4258 817.735 16.6515 815.824 14.7407C815.824 14.7407 819.51 11.0555 815.824 7.23385C815.824 7.23385 817.872 5.18653 817.462 3.54868C815.824 3.41219 813.777 5.18653 813.777 5.18653C810.092 1.50136 806.27 5.18653 806.27 5.18653C802.449 1.50136 798.763 5.18653 798.763 5.18653ZM791.257 30.3003C793.986 30.3003 796.17 28.1165 796.17 25.5232C796.17 23.7489 795.215 22.111 793.713 21.2921C794.669 21.9745 795.215 23.0664 795.215 24.4313C795.215 26.6151 793.44 28.3894 791.257 28.3894C789.073 28.3894 787.298 26.6151 787.298 24.4313C787.298 23.2029 787.844 22.111 788.8 21.2921C787.298 22.111 786.343 23.7489 786.343 25.5232C786.48 28.1165 788.663 30.3003 791.257 30.3003ZM765.051 3.54868C764.641 5.32302 766.689 7.23385 766.689 7.23385C763.004 10.919 766.689 14.7407 766.689 14.7407C764.914 16.515 764.778 18.2894 765.187 19.7907H786.07V3.68517C785.251 3.95814 784.569 4.36761 783.75 5.18653C783.75 5.18653 780.065 1.50136 776.243 5.18653C776.243 5.18653 772.558 1.50136 768.736 5.18653C768.736 5.18653 766.689 3.41219 765.051 3.54868ZM781.702 55.414C781.702 55.414 782.248 58.9627 786.07 60.0546V30.0273H766.689C766.416 30.9827 765.187 34.9409 769.555 36.8517C769.555 36.8517 767.508 41.7652 772.285 43.8126C772.285 43.8126 771.739 49.1356 776.925 49.6815C777.062 49.545 776.516 54.8681 781.702 55.414ZM812.958 36.7152C817.326 34.8044 816.097 30.8462 815.824 29.8908H796.307V59.9181C800.128 58.8262 800.811 55.2775 800.811 55.2775C806.134 54.7316 805.451 49.4086 805.451 49.4086C810.774 48.8626 810.228 43.5396 810.228 43.5396C815.142 41.6288 812.958 36.7152 812.958 36.7152Z" fill="#511110"/>
<path d="M80.106 62.9351C75.7944 62.9351 72.3905 66.6416 72.3905 71.2558C72.3905 75.87 75.87 79.5765 80.106 79.5765C84.4177 79.5765 87.8216 75.87 87.8216 71.2558C87.8216 66.6416 84.342 62.9351 80.106 62.9351ZM52.4963 62.9351C48.1847 62.9351 44.7808 66.6416 44.7808 71.2558C44.7808 75.87 48.2603 79.5765 52.4963 79.5765C56.808 79.5765 60.2119 75.87 60.2119 71.2558C60.2876 66.6416 56.808 62.9351 52.4963 62.9351Z" fill="#7289DA"/>
<path d="M116.868 0H15.5068C6.95915 0 0 6.95915 0 15.5068V116.868C0 125.416 6.95915 132.375 15.5068 132.375H101.286L97.2769 118.533L106.959 127.458L116.112 135.855L132.451 150V15.5068C132.375 6.95915 125.416 0 116.868 0ZM87.6702 97.9576C87.6702 97.9576 84.9471 94.705 82.6778 91.9062C92.587 89.1074 96.3692 82.9803 96.3692 82.9803C93.2678 85.0227 90.3177 86.4599 87.6702 87.4433C83.8881 89.0318 80.2572 90.0151 76.702 90.6959C69.4403 92.0575 62.7837 91.6793 57.1104 90.6203C52.7988 89.7882 49.0923 88.6536 45.9909 87.3676C44.2511 86.6868 42.3601 85.8548 40.469 84.7958C40.2421 84.6445 40.0151 84.5688 39.7882 84.4176C39.6369 84.3419 39.5613 84.2663 39.4856 84.2663C38.1241 83.5098 37.3676 82.9803 37.3676 82.9803C37.3676 82.9803 40.9985 88.9561 50.6052 91.8306C48.3359 94.705 45.5371 98.0333 45.5371 98.0333C28.82 97.5038 22.466 86.6112 22.466 86.6112C22.466 62.4811 33.3586 42.8896 33.3586 42.8896C44.2511 34.7958 54.5386 35.0227 54.5386 35.0227L55.295 35.9304C41.6793 39.7882 35.4766 45.764 35.4766 45.764C35.4766 45.764 37.1407 44.8563 39.9395 43.646C48.0333 40.0908 54.4629 39.1831 57.1104 38.8805C57.5643 38.8048 57.9425 38.7292 58.3964 38.7292C63.0106 38.1241 68.23 37.9728 73.6763 38.5779C80.8623 39.41 88.5779 41.528 96.4448 45.764C96.4448 45.764 90.469 40.0908 77.6097 36.233L78.6687 35.0227C78.6687 35.0227 89.0318 34.7958 99.8487 42.8896C99.8487 42.8896 110.741 62.4811 110.741 86.6112C110.741 86.5355 104.387 97.4281 87.6702 97.9576V97.9576ZM201.891 32.3752H176.778V60.59L193.495 75.643V48.2602H202.421C208.094 48.2602 210.893 50.9834 210.893 55.3706V76.3238C210.893 80.711 208.245 83.6611 202.421 83.6611H176.702V99.6218H201.815C215.28 99.6974 227.912 92.9652 227.912 77.534V54.9924C227.988 39.2587 215.356 32.3752 201.891 32.3752V32.3752ZM333.51 77.534V54.3873C333.51 46.0666 348.487 44.1755 353.026 52.4962L366.868 46.8986C361.422 34.9471 351.513 31.4675 343.268 31.4675C329.803 31.4675 316.49 39.2587 316.49 54.3873V77.534C316.49 92.8139 329.803 100.454 342.965 100.454C351.437 100.454 361.573 96.2935 367.171 85.4009L352.345 78.593C348.714 87.8971 333.51 85.6278 333.51 77.534V77.534ZM287.746 57.5643C282.527 56.4297 279.047 54.5386 278.82 51.2859C279.123 43.4947 291.15 43.1921 298.185 50.6808L309.304 42.1331C302.345 33.6611 294.478 31.3918 286.384 31.3918C274.055 31.3918 262.103 38.351 262.103 51.5129C262.103 64.2965 271.937 71.18 282.753 72.8442C288.275 73.6006 294.402 75.7943 294.251 79.5764C293.797 86.7625 278.971 86.3843 272.239 78.2148L261.498 88.2753C267.776 96.3691 276.324 100.454 284.342 100.454C296.672 100.454 310.363 93.3434 310.893 80.3328C311.649 63.9183 299.697 59.7579 287.746 57.5643V57.5643ZM237.065 99.5461H254.009V32.3752H237.065V99.5461ZM522.769 32.3752H497.655V60.59L514.372 75.643V48.2602H523.298C528.971 48.2602 531.77 50.9834 531.77 55.3706V76.3238C531.77 80.711 529.123 83.6611 523.298 83.6611H497.58V99.6218H522.769C536.233 99.6974 548.865 92.9652 548.865 77.534V54.9924C548.865 39.2587 536.233 32.3752 522.769 32.3752V32.3752ZM399.546 31.4675C385.628 31.4675 371.785 39.0318 371.785 54.5386V77.4584C371.785 92.8139 385.704 100.529 399.697 100.529C413.616 100.529 427.458 92.8139 427.458 77.4584V54.5386C427.458 39.1074 413.464 31.4675 399.546 31.4675ZM410.439 77.4584C410.439 82.2995 404.993 84.7958 399.622 84.7958C394.176 84.7958 388.729 82.4508 388.729 77.4584V54.5386C388.729 49.6218 394.024 46.9743 399.319 46.9743C404.841 46.9743 410.439 49.3192 410.439 54.5386V77.4584V77.4584ZM488.275 54.5386C487.897 38.8048 477.156 32.4508 463.313 32.4508H436.46V99.6218H453.631V78.2905H456.657L472.239 99.6218H493.419L475.114 76.5507C483.207 73.9788 488.275 66.944 488.275 54.5386ZM463.616 63.6157H453.631V48.2602H463.616C474.281 48.2602 474.281 63.6157 463.616 63.6157Z" fill="#7289DA"/>
<line x1="604.5" y1="18" x2="604.5" y2="133" stroke="black"/>
</svg>
