<svg width="304" height="95" viewBox="0 0 304 95" fill="none" xmlns="http://www.w3.org/2000/svg">
<path d="M10.8 9C10.84 10.4 10.88 11.84 10.88 13.24C10.88 17.8 10.8 22.52 10.44 27.04C10.32 28.84 9.92 30.6 9.68 32.36C9.64 32.44 9.6 32.56 9.6 32.68C9.6 32.84 9.68 32.92 9.84 32.92C10.04 32.92 10.48 32.72 10.68 32.64C12.04 32.04 13.56 31.76 14.96 31.28V17.96C14.96 14.92 14.96 12.08 15.12 8.84C16 8.88 23.16 8.96 23.28 8.96C23.36 8.96 23.4 8.96 23.44 8.8C23.76 7.72 24.76 5.64 24.76 4.68C24.76 4.52 24.6 4.4 24.44 4.4C24.32 4.4 24.24 4.44 24.12 4.48C22.4 5.08 20.28 5.24 18.36 5.24C16.64 5.24 15.56 5.28 13.12 5.28C8.84 5.28 7.2 5.28 5.28 5.16L3.32 5.04C2.72 5.04 2.64 5.12 2.44 5.68L1.84 7.36C1.52 8.2 0.92 9.16 0.72 10.04C0.76 10.12 0.88 10.16 0.96 10.16C1.08 10.16 1.28 10.08 1.36 10.04C2.28 9.68 3.16 9.48 4.16 9.36C6.36 9.12 8.6 9.08 10.8 9ZM29.9316 16.72C31.0916 15.88 35.0116 14.12 36.4516 14.12C37.5316 14.12 37.8116 14.56 37.9316 15.6C38.0116 16.32 38.0516 17.12 38.0516 27.76C38.0516 29.16 38.0516 30.68 37.8516 32.2C37.8516 32.36 37.8916 32.56 38.1316 32.56C38.2116 32.56 38.4916 32.44 38.5716 32.4C39.2916 32.08 40.0516 31.88 40.8116 31.68C41.2516 31.56 43.7716 31.16 43.7716 30.48C43.7716 30.16 43.5716 30.12 43.2916 30.08C41.8916 29.92 41.8516 27.32 41.8516 24.52C41.8516 20.48 42.0516 16.4 42.0516 12.16C42.0516 11.36 41.8116 10.32 40.8516 10.32C38.1316 10.32 33.0116 13.52 29.9316 14.76V12.08C29.9316 8.08 30.0116 0.959999 30.1716 0.319998C30.1716 0.199999 30.1716 0.119998 30.0516 0.119998C29.6516 0.119998 26.3716 1.48 25.6516 1.72C25.5316 1.76 25.3316 1.96 25.3316 2.08C25.3316 2.12 25.4116 2.28 25.4516 2.32C26.0916 3.44 26.1316 7.6 26.1316 8.92V15.96C26.1316 20.56 26.0516 25.2 25.9316 29.8C25.8916 30.68 25.7316 31.6 25.7316 32.48C25.7316 32.64 25.8516 32.72 26.0116 32.72C26.2916 32.72 27.2916 32.28 27.6116 32.16C28.3316 31.88 29.0516 31.64 29.8116 31.48C30.0116 31.44 30.1316 31.4 30.1316 31.2C30.1316 30.68 29.9316 30.12 29.9316 29.56C29.8916 27.8 29.8116 26.08 29.8116 24.32C29.8116 21.8 29.8916 19.24 29.9316 16.72ZM55.9584 21.36C57.2784 19.56 58.5584 17.68 60.3184 16.08C60.5984 15.84 60.8384 15.6 60.8384 15.28C60.8384 14.96 59.9984 14.16 59.7584 13.88C57.9584 11.92 55.3584 10.76 52.6784 10.76C52.1984 10.76 51.6384 10.76 51.1984 10.96C50.6384 11.2 48.9584 13.68 48.5984 14.16L46.4384 17.2C45.3984 18.68 45.3584 18.68 45.3584 20.6C45.3584 25.2 48.1184 32.36 53.6384 32.36C55.2784 32.36 56.9184 29.92 58.4784 28.68C58.7984 28.4 59.5984 27.88 59.5984 27.36C59.5984 27.12 59.3984 26.92 59.1584 26.92C58.5584 26.92 57.7184 27.88 56.0784 27.88C54.5584 27.88 52.9584 27.32 51.7584 26.32C50.1184 24.92 49.7984 23.44 49.5184 21.4C50.6784 21.36 51.8384 21.32 52.9984 21.32C53.9984 21.32 54.9584 21.32 55.9584 21.36ZM50.1584 18.8C49.4384 18.8 49.2784 18.72 49.2784 17.96C49.2784 16.48 49.5584 14.64 51.3984 14.64C52.8784 14.64 56.3584 16.24 56.3584 17.88C56.3584 18.72 54.7984 18.88 53.5984 18.88C52.9984 18.88 52.4784 18.84 52.2784 18.84L50.1584 18.8Z" fill="#673AB7"/>
<path d="M12.635 68.57C27.845 68.57 31.03 65.645 37.335 52.125C37.335 49.005 35.775 45.95 33.695 43.675C30.705 40.425 26.61 38.995 22.45 38.995C22.255 38.995 22.125 38.995 6.135 39.515C5.355 41.075 4.51 42.505 3.47 43.935C5.55 44.065 5.81 44.845 5.875 46.795C6.005 49.59 6.135 52.45 6.135 55.245V57C6.135 62.85 6.135 68.83 5.615 74.615C5.42 77.02 4.77 80.92 4.77 83.325C4.77 83.585 4.9 83.715 5.16 83.715C5.745 83.715 12.44 82.22 12.57 82.09C12.7 81.895 12.765 81.44 12.765 81.245C12.765 81.245 12.505 75.655 12.505 74.745C12.505 72.665 12.57 70.65 12.635 68.57ZM12.57 54.855C12.57 51.54 12.765 48.29 12.83 44.975C15.43 44.845 16.795 44.715 18.225 44.715C23.035 44.715 26.025 46.405 28.82 50.305C29.99 51.93 30.9 53.815 30.9 55.83C30.9 61.29 25.375 61.81 20.955 61.81H18.68C16.6 61.81 14.65 61.745 12.635 61.42L12.57 54.855ZM47.2521 55.115C47.3171 54.205 47.5771 49.33 47.5771 48.615C47.5771 48.29 47.5771 48.03 47.1221 48.03C46.9921 48.03 46.7971 48.095 46.6671 48.16C45.2371 48.68 43.8721 49.07 42.3771 49.46C41.9871 49.59 40.0371 49.85 40.0371 50.305C41.2071 53.75 41.2071 60.12 41.2071 63.565V68.765C41.2071 71.365 41.1421 74.03 40.8171 76.5C40.6871 77.215 39.8421 82.35 39.8421 83.39C39.8421 83.585 39.9071 83.715 40.1021 83.715C40.2321 83.715 46.7971 81.44 46.9271 81.375C47.1871 81.245 47.2521 81.05 47.2521 80.79C47.1221 79.88 47.0571 72.99 47.0571 72.99C47.0571 71.755 46.9921 69.935 46.9921 67.855C46.9921 63.955 47.2521 59.34 48.8771 57.455C50.1121 56.025 51.5421 55.96 53.3621 55.96C54.0121 55.96 54.8571 56.09 55.3121 56.09C55.7671 56.09 55.8971 55.83 55.8971 55.375V52.905C55.8971 51.67 55.8971 50.435 56.1571 48.29C56.1571 48.16 56.0271 48.03 55.8971 48.03C51.2821 48.94 49.4621 51.28 47.2521 55.115ZM60.25 63.565C60.25 73.705 59.925 76.37 59.795 82.09V82.87C59.795 83.195 59.795 83.585 60.25 83.585C60.575 83.585 66.945 81.44 68.115 81.115C68.57 80.985 69.155 80.79 69.155 80.205C69.155 79.23 67.53 79.49 66.945 78.775C66.23 77.865 66.23 74.095 66.23 72.535V72.275C66.23 66.945 66.23 61.68 66.295 56.35C66.36 53.945 66.49 51.605 66.49 49.2C66.49 48.745 66.49 48.29 65.905 48.29C65.255 48.29 59.6 50.305 58.95 50.435C58.495 50.5 57.91 50.565 57.91 51.15C57.91 51.41 58.235 51.54 58.43 51.605C59.795 52.19 59.99 53.36 60.055 54.725C60.185 57.65 60.25 60.64 60.25 63.565ZM68.115 40.88C68.245 39.45 68.31 37.89 68.31 36.395C68.31 36.07 68.245 35.745 67.855 35.745C67.465 35.745 66.945 36.395 66.685 36.655C64.605 38.8 62.005 40.425 59.47 41.985L59.21 45.56C59.21 45.755 59.21 46.08 59.47 46.08C59.73 46.08 60.835 45.43 61.16 45.3C63.63 44.195 66.165 42.83 68.115 40.88ZM87.4129 83.65C91.7679 83.65 94.4979 81.05 97.2929 77.995C101.453 73.51 103.858 68.44 103.858 62.265C103.858 54.335 99.8929 47.835 91.3129 47.835C79.4829 47.835 71.8129 56.285 71.8129 67.92C71.8129 77.345 77.9229 83.65 87.4129 83.65ZM76.7529 62.72C76.7529 57.325 79.8729 53.685 85.3979 53.685C93.5229 53.685 98.6579 59.665 98.6579 67.595C98.6579 72.535 94.5629 77.085 89.4929 77.085C82.1479 77.085 76.7529 69.61 76.7529 62.72ZM115.299 55.115C115.364 54.205 115.624 49.33 115.624 48.615C115.624 48.29 115.624 48.03 115.169 48.03C115.039 48.03 114.844 48.095 114.714 48.16C113.284 48.68 111.919 49.07 110.424 49.46C110.034 49.59 108.084 49.85 108.084 50.305C109.254 53.75 109.254 60.12 109.254 63.565V68.765C109.254 71.365 109.189 74.03 108.864 76.5C108.734 77.215 107.889 82.35 107.889 83.39C107.889 83.585 107.954 83.715 108.149 83.715C108.279 83.715 114.844 81.44 114.974 81.375C115.234 81.245 115.299 81.05 115.299 80.79C115.169 79.88 115.104 72.99 115.104 72.99C115.104 71.755 115.039 69.935 115.039 67.855C115.039 63.955 115.299 59.34 116.924 57.455C118.159 56.025 119.589 55.96 121.409 55.96C122.059 55.96 122.904 56.09 123.359 56.09C123.814 56.09 123.944 55.83 123.944 55.375V52.905C123.944 51.67 123.944 50.435 124.204 48.29C124.204 48.16 124.074 48.03 123.944 48.03C119.329 48.94 117.509 51.28 115.299 55.115ZM138.437 81.895C136.617 85.86 134.667 89.63 131.677 92.88C131.417 93.14 130.702 93.855 130.702 94.18C130.702 94.505 130.962 94.57 131.222 94.57C133.172 94.57 135.252 94.115 137.137 93.79C139.022 90.865 140.322 85.405 141.622 81.895C145.327 72.145 149.747 60.38 153.972 49.395C154.102 49.135 154.167 48.94 154.232 48.68C154.167 48.55 153.907 48.485 153.777 48.485L150.072 48.615C149.422 48.615 149.162 51.67 148.967 52.385C147.082 59.21 144.937 66.295 142.077 72.73C140.647 71.3 135.642 59.99 134.602 57.585C133.497 55.05 132.392 52.385 131.157 49.915C130.962 49.59 130.377 47.835 129.987 47.835C129.727 47.835 124.267 52.58 124.202 52.97C124.917 53.75 126.087 55.44 126.737 56.545C128.232 59.015 129.467 61.615 130.702 64.215C133.562 70.065 136.227 75.785 138.437 81.895ZM180.15 68.57C195.36 68.57 198.545 65.645 204.85 52.125C204.85 49.005 203.29 45.95 201.21 43.675C198.22 40.425 194.125 38.995 189.965 38.995C189.77 38.995 189.64 38.995 173.65 39.515C172.87 41.075 172.025 42.505 170.985 43.935C173.065 44.065 173.325 44.845 173.39 46.795C173.52 49.59 173.65 52.45 173.65 55.245V57C173.65 62.85 173.65 68.83 173.13 74.615C172.935 77.02 172.285 80.92 172.285 83.325C172.285 83.585 172.415 83.715 172.675 83.715C173.26 83.715 179.955 82.22 180.085 82.09C180.215 81.895 180.28 81.44 180.28 81.245C180.28 81.245 180.02 75.655 180.02 74.745C180.02 72.665 180.085 70.65 180.15 68.57ZM180.085 54.855C180.085 51.54 180.28 48.29 180.345 44.975C182.945 44.845 184.31 44.715 185.74 44.715C190.55 44.715 193.54 46.405 196.335 50.305C197.505 51.93 198.415 53.815 198.415 55.83C198.415 61.29 192.89 61.81 188.47 61.81H186.195C184.115 61.81 182.165 61.745 180.15 61.42L180.085 54.855ZM214.767 55.115C214.832 54.205 215.092 49.33 215.092 48.615C215.092 48.29 215.092 48.03 214.637 48.03C214.507 48.03 214.312 48.095 214.182 48.16C212.752 48.68 211.387 49.07 209.892 49.46C209.502 49.59 207.552 49.85 207.552 50.305C208.722 53.75 208.722 60.12 208.722 63.565V68.765C208.722 71.365 208.657 74.03 208.332 76.5C208.202 77.215 207.357 82.35 207.357 83.39C207.357 83.585 207.422 83.715 207.617 83.715C207.747 83.715 214.312 81.44 214.442 81.375C214.702 81.245 214.767 81.05 214.767 80.79C214.637 79.88 214.572 72.99 214.572 72.99C214.572 71.755 214.507 69.935 214.507 67.855C214.507 63.955 214.767 59.34 216.392 57.455C217.627 56.025 219.057 55.96 220.877 55.96C221.527 55.96 222.372 56.09 222.827 56.09C223.282 56.09 223.412 55.83 223.412 55.375V52.905C223.412 51.67 223.412 50.435 223.672 48.29C223.672 48.16 223.542 48.03 223.412 48.03C218.797 48.94 216.977 51.28 214.767 55.115ZM242.016 65.71C244.161 62.785 246.241 59.73 249.101 57.13C249.556 56.74 249.946 56.35 249.946 55.83C249.946 55.31 248.581 54.01 248.191 53.555C245.266 50.37 241.041 48.485 236.686 48.485C235.906 48.485 234.996 48.485 234.281 48.81C233.371 49.2 230.641 53.23 230.056 54.01L226.546 58.95C224.856 61.355 224.791 61.355 224.791 64.475C224.791 71.95 229.276 83.585 238.246 83.585C240.911 83.585 243.576 79.62 246.111 77.605C246.631 77.15 247.931 76.305 247.931 75.46C247.931 75.07 247.606 74.745 247.216 74.745C246.241 74.745 244.876 76.305 242.211 76.305C239.741 76.305 237.141 75.395 235.191 73.77C232.526 71.495 232.006 69.09 231.551 65.775C233.436 65.71 235.321 65.645 237.206 65.645C238.831 65.645 240.391 65.645 242.016 65.71ZM232.591 61.55C231.421 61.55 231.161 61.42 231.161 60.185C231.161 57.78 231.616 54.79 234.606 54.79C237.011 54.79 242.666 57.39 242.666 60.055C242.666 61.42 240.131 61.68 238.181 61.68C237.206 61.68 236.361 61.615 236.036 61.615L232.591 61.55ZM263.138 83.845C269.508 83.845 269.508 81.31 272.823 76.175C273.993 74.355 276.138 72.21 276.138 69.87C276.138 68.44 274.968 67.14 273.928 66.295C269.313 62.33 258.068 61.81 258.068 57.78C258.068 55.635 260.343 54.92 262.098 54.92C264.243 54.92 267.623 55.31 269.638 56.025C270.548 56.35 271.458 56.545 272.303 57C272.433 57.065 272.563 57.195 272.758 57.195C273.213 57.195 273.408 56.74 273.538 56.35C273.798 55.245 274.903 51.54 274.903 50.76C274.903 49.265 266.713 48.485 265.153 48.485C263.983 48.485 261.578 48.745 260.538 49.265C259.368 49.915 252.413 61.225 252.413 62.655C252.413 69.48 270.678 68.505 270.678 74.615C270.678 77.085 266.453 77.995 264.568 77.995C262.293 77.995 258.588 76.955 256.508 76.045C255.403 75.59 254.688 74.94 253.713 74.29C253.258 74.745 251.373 79.425 251.373 79.945C251.373 80.53 253.128 81.245 253.518 81.44C256.443 82.805 259.888 83.845 263.138 83.845ZM289.862 83.845C296.232 83.845 296.232 81.31 299.547 76.175C300.717 74.355 302.862 72.21 302.862 69.87C302.862 68.44 301.692 67.14 300.652 66.295C296.037 62.33 284.792 61.81 284.792 57.78C284.792 55.635 287.067 54.92 288.822 54.92C290.967 54.92 294.347 55.31 296.362 56.025C297.272 56.35 298.182 56.545 299.027 57C299.157 57.065 299.287 57.195 299.482 57.195C299.937 57.195 300.132 56.74 300.262 56.35C300.522 55.245 301.627 51.54 301.627 50.76C301.627 49.265 293.437 48.485 291.877 48.485C290.707 48.485 288.302 48.745 287.262 49.265C286.092 49.915 279.137 61.225 279.137 62.655C279.137 69.48 297.402 68.505 297.402 74.615C297.402 77.085 293.177 77.995 291.292 77.995C289.017 77.995 285.312 76.955 283.232 76.045C282.127 75.59 281.412 74.94 280.437 74.29C279.982 74.745 278.097 79.425 278.097 79.945C278.097 80.53 279.852 81.245 280.242 81.44C283.167 82.805 286.612 83.845 289.862 83.845Z" fill="#673AB7"/>
</svg>
